<svg width="157" height="40" viewBox="0 0 157 40" fill="none" xmlns="http://www.w3.org/2000/svg">
<rect width="157" height="40" fill="white"/>
<path d="M18.126 13.1089V21.8698C15.9902 23.2679 13.6647 24.0618 10.6508 24.0618C4.92492 24.0618 0 19.8956 0 13.7061C0 7.51658 5.00923 3.32935 10.6508 3.32935C13.6015 3.32935 15.7092 4.15134 17.7677 5.41594L16.201 8.14888C14.5851 7.1091 12.6741 6.46977 10.8123 6.46977C6.2387 6.46977 3.66735 9.70856 3.66735 13.6991C3.66735 17.9777 6.8148 21.0057 10.7842 21.0057C12.5125 21.0057 13.6647 20.7106 14.838 20.0502V16.1159H10.159V13.1019H18.126V13.1089Z" fill="#00A5E8"/>
<path d="M37.3901 23.7245L35.437 19.1298H27.4981L25.552 23.7245H22.0252L31.2779 3.3855H31.7697L40.9942 23.7245H37.3831H37.3901ZM31.4676 9.70851L28.6222 16.4109H34.32L31.4746 9.70851H31.4676Z" fill="#00A5E8"/>
<path d="M62.1764 24.1108L49.6077 10.8676V23.7315H46.1862V3.39244L46.7342 3.28003L59.1344 16.3406V3.65941H62.5558V24.0265L62.1764 24.1108V24.1108Z" fill="#00A5E8"/>
<path d="M85.3747 24.1108L72.813 10.8676V23.7315H69.3915V3.39244L69.9395 3.28003L82.3537 16.3406V3.65941H85.7681V24.0265L85.3887 24.1108H85.3747Z" fill="#00A5E8"/>
<path d="M92.5968 23.7244V3.65942H104.835V6.7858H96.0113V12.0409H103.978V15.0549H96.0113V20.6191H104.835V23.7315H92.5968V23.7244Z" fill="#00A5E8"/>
<path d="M119.891 6.7858V23.7315H116.47V6.7858H110.098V3.65942H126.249V6.7858H119.898H119.891Z" fill="#00A5E8"/>
<path d="M140.146 6.7858V23.7315H136.731V6.7858H130.345V3.65942H146.497V6.7858H140.139H140.146Z" fill="#00A5E8"/>
</svg>
