<svg width="100" height="100" viewBox="0 0 100 100" fill="none" xmlns="http://www.w3.org/2000/svg">
<path d="M60.34 86.4943L13.7793 39.9336L10.3087 43.4042L56.8693 89.9649L60.34 86.4943Z" fill="white" stroke="#222875" stroke-linecap="round" stroke-linejoin="round"/>
<path d="M26.3672 59.6182L40.7096 73.9605L36.404 78.2662C34.8017 79.8684 32.1976 79.8684 30.5954 78.2662L22.0616 69.7324C20.4594 68.1302 20.4594 65.526 22.0616 63.9238L26.3672 59.6182Z" fill="white" stroke="#222875" stroke-linecap="round" stroke-linejoin="round"/>
<path d="M55.0208 16.6329L55.0184 16.6305C52.1245 13.7366 47.4326 13.7366 44.5387 16.6305L22.7493 38.4199C19.8554 41.3138 19.8554 46.0057 22.7493 48.8996L22.7517 48.902C25.6456 51.7959 30.3375 51.7959 33.2313 48.902L55.0208 27.1125C57.9147 24.2187 57.9147 19.5268 55.0208 16.6329Z" fill="#FF584A" stroke="#222875" stroke-linecap="round" stroke-linejoin="round"/>
<path d="M53.0006 29.3942C49.0314 33.3634 42.8767 34.1403 38.0483 31.282L36.4486 30.3357C31.6178 27.4749 25.4655 28.2542 21.4963 32.2234L13.7805 39.9392L37.0343 63.1929L61.9144 38.3128L53.0006 29.399L53.0006 29.3942Z" fill="#CBEFFF" stroke="#222875" stroke-linecap="round" stroke-linejoin="round"/>
<path d="M51.371 77.5234L51.3734 77.5258C54.2673 80.4197 58.9592 80.4197 61.8531 77.5258L83.6425 55.7363C86.5364 52.8424 86.5364 48.1505 83.6425 45.2567L83.6401 45.2542C80.7462 42.3604 76.0543 42.3604 73.1604 45.2542L51.371 67.0437C48.4771 69.9376 48.4771 74.6295 51.371 77.5234Z" fill="#FF584A" stroke="#222875" stroke-linecap="round" stroke-linejoin="round"/>
<path d="M70.8785 47.2707C66.9093 51.2399 66.1324 57.3946 68.9907 62.223L69.937 63.8227C72.7977 68.6535 72.0184 74.8058 68.0492 78.775L60.3335 86.4908L37.0797 63.237L61.9599 38.3569L70.8736 47.2707L70.8785 47.2707Z" fill="#CBEFFF" stroke="#222875" stroke-linecap="round" stroke-linejoin="round"/>
<path d="M10.3555 50.8125L3.99991 57.1681" stroke="#222875" stroke-linecap="round" stroke-linejoin="round"/>
<path d="M13.6123 54.0703L10.8411 56.8415" stroke="#222875" stroke-linecap="round" stroke-linejoin="round"/>
<path d="M49.248 89.707L42.8925 96.0626" stroke="#222875" stroke-linecap="round" stroke-linejoin="round"/>
<path d="M45.9932 86.4512L43.222 89.2224" stroke="#222875" stroke-linecap="round" stroke-linejoin="round"/>
<path d="M23.7891 77.3359L17.4335 83.6915" stroke="#222875" stroke-linecap="round" stroke-linejoin="round"/>
<path d="M20.4863 74.0332L17.7151 76.8044" stroke="#222875" stroke-linecap="round" stroke-linejoin="round"/>
<path d="M27.6611 81.208L24.89 83.9792" stroke="#222875" stroke-linecap="round" stroke-linejoin="round"/>
<path d="M77.58 40.5215C83.5072 34.5943 86.956 26.7164 87.3747 18.4706C87.4667 16.699 87.4183 14.9129 87.2247 13.1219L87.2078 12.9646C85.3659 12.754 83.5241 12.7032 81.7041 12.7952C73.4559 13.2163 65.578 16.6651 59.6484 22.5947L20.8616 61.3816L38.7907 79.3108L77.58 40.5215Z" fill="#CBEFFF" stroke="#222875" stroke-linecap="round" stroke-linejoin="round"/>
<path d="M74.4327 25.8941C75.8002 27.2616 76.4972 29.4059 76.8554 31.0807L78.4285 32.6539L78.6536 32.4288C80.4494 30.633 79.4959 26.7703 76.5262 23.8006C73.5566 20.831 69.6939 19.8774 67.898 21.6732L67.673 21.8983L69.1784 23.4037C70.8677 23.7764 73.0677 24.5291 74.4327 25.8941Z" fill="white" stroke="#222875" stroke-linecap="round" stroke-linejoin="round"/>
<path d="M66.1088 34.0629C65.5038 33.4579 64.3396 33.6297 63.4853 34.4502L28.0335 68.5514L31.6179 72.1358L65.7192 36.6841C66.5396 35.8297 66.7115 34.6656 66.1064 34.0605L66.1088 34.0629Z" fill="#CBEFFF" stroke="#222875" stroke-linecap="round" stroke-linejoin="round"/>
</svg>
