<svg width="127" height="40" viewBox="0 0 127 40" fill="none" xmlns="http://www.w3.org/2000/svg">
<g clip-path="url(#clip0_3147_1128)">
<rect width="127" height="40" fill="white"/>
<path d="M62.6765 1.45897V24.8447C55.5108 16.8823 48.3768 8.95687 41.2166 1V28.5192C41.2661 28.5233 41.3046 28.5315 41.3445 28.5301C41.383 28.5301 41.4229 28.5205 41.493 28.511V4.84935C48.6408 12.824 55.7474 20.7549 62.8787 28.7118V1.45897H62.6752H62.6765ZM25.5404 14.4932V1.83052H38.894V1.58191H23.4928V28.4973H38.8995V28.1818H25.5362V14.8033H36.8176V14.4932H25.5404Z" fill="white"/>
<path d="M96.2484 28.9999C95.9239 28.9603 95.6008 28.922 95.2762 28.8797C91.6597 28.4125 88.4914 27.011 85.8939 24.4293C85.5418 24.0796 85.2228 23.6985 84.8942 23.3392C84.4706 23.7422 84.0622 24.1629 83.6194 24.5454C81.532 26.3458 79.1008 27.4631 76.4166 28.0601C75.0003 28.3743 73.5646 28.5095 72.1139 28.5054C69.9069 28.4999 67.6998 28.504 65.4914 28.504H65.2535V1.57223C65.325 1.57223 65.3965 1.57223 65.4694 1.57223C67.8758 1.57223 70.2823 1.53262 72.6873 1.58179C76.5239 1.65829 80.0414 2.72785 83.0941 5.10057C83.7446 5.60599 84.3276 6.1961 84.956 6.76025C84.967 6.74795 85.0124 6.70288 85.0537 6.6537C86.8812 4.449 89.1818 2.92456 91.8838 1.98476C93.5573 1.40285 95.2845 1.10096 97.057 1.06272C100.869 0.982124 104.364 1.95471 107.435 4.23454C110.199 6.28762 112.055 8.97315 112.71 12.3553C113.589 16.9 112.462 20.9365 109.242 24.32C106.951 26.7282 104.081 28.1065 100.823 28.7144C100.199 28.8305 99.5624 28.8824 98.9313 28.9657C98.8859 28.9712 98.8419 28.989 98.7965 28.9999H96.2457H96.2484ZM110.917 14.9493C110.83 14.1967 110.79 13.3361 110.624 12.5001C109.883 8.76688 107.941 5.7781 104.788 3.61711C101.709 1.5053 98.3056 0.779958 94.6437 1.66375C90.9048 2.56667 88.116 4.77957 86.1194 8.01559C86.0259 8.16721 86.0396 8.26557 86.1318 8.40899C87.3419 10.2913 87.9785 12.3553 88.0528 14.5819C88.1394 17.1513 87.5069 19.535 86.1043 21.7055C86.0259 21.8257 86.03 21.9118 86.1015 22.0306C86.9114 23.3802 87.9111 24.5714 89.124 25.5822C91.3627 27.4495 93.9327 28.5313 96.8631 28.7007C99.1059 28.8305 101.257 28.3988 103.234 27.3498C108.173 24.7284 110.635 20.5622 110.918 14.9493H110.917ZM84.0031 22.0552C83.9618 21.9773 83.9508 21.9514 83.9371 21.9282C82.5716 19.6538 81.9597 17.1896 82.0504 14.5477C82.1288 12.3075 82.7476 10.2271 83.9013 8.30245C83.999 8.13989 83.9866 8.03881 83.8807 7.88992C83.0488 6.72746 82.0697 5.70707 80.9284 4.8424C78.5109 3.01061 75.7909 1.94924 72.7423 1.8304C70.9767 1.7621 69.2056 1.81264 67.4372 1.81128C67.3987 1.81128 67.3602 1.8263 67.323 1.83313V28.2144C67.3932 28.2185 67.4537 28.224 67.5142 28.224C69.0914 28.224 70.6687 28.2541 72.2445 28.2131C73.1109 28.1899 73.9854 28.1147 74.8339 27.9481C77.8784 27.3511 80.4787 25.9196 82.6184 23.6862C83.1161 23.1658 83.5534 22.5893 84.0045 22.0566L84.0031 22.0552ZM85.1211 10.1192C83.8711 13.3976 83.8711 16.6787 85.1169 19.9598C86.5319 16.6828 86.5305 13.403 85.1211 10.1192Z" fill="black"/>
<path d="M1.1487 1.57228H3.20311V15.015C3.55376 14.7541 3.86866 14.5205 4.18356 14.2842C8.96619 10.7066 13.7474 7.12912 18.5287 3.5516C19.3386 2.94647 20.1527 2.34543 20.9544 1.72937C21.1386 1.58868 21.3188 1.5313 21.5897 1.58458C16.114 5.71123 10.6644 9.81738 5.18739 13.9454C10.857 18.7906 16.5128 23.6234 22.1989 28.4822C22.1136 28.4918 22.0655 28.5014 22.0173 28.5014C21.4755 28.5014 20.9338 28.5082 20.3933 28.4973C20.2957 28.4959 20.1774 28.4508 20.1032 28.3866C14.93 23.9594 9.761 19.5282 4.59197 15.0969C4.46821 14.9904 4.3417 14.8866 4.20556 14.7718C3.90167 14.989 3.59914 15.2007 3.30487 15.4207C3.26636 15.4493 3.25261 15.5258 3.24849 15.5805C3.23886 15.7362 3.24024 15.8933 3.23886 16.049C3.23336 18.8848 3.23061 21.722 3.22511 24.5577C3.22236 25.8022 3.21549 27.0466 3.21136 28.291C3.21136 28.3511 3.21136 28.4112 3.21136 28.5082H1.14732V1.57228H1.1487Z" fill="black"/>
<path d="M62.6765 1.45897H62.8801V28.7131C55.7487 20.7563 48.6408 12.8253 41.4944 4.85072V28.5123C41.4242 28.5219 41.3844 28.5301 41.3459 28.5315C41.306 28.5315 41.2661 28.5246 41.218 28.5205V1C48.3782 8.95687 55.5122 16.8823 62.6779 24.8447V1.45897H62.6765Z" fill="black"/>
<path d="M25.5404 14.4933H36.8176V14.8034H25.5362V28.1819H38.8995V28.4974H23.4928V1.58203H38.894V1.83064H25.5404V14.4933Z" fill="black"/>
</g>
<defs>
<clipPath id="clip0_3147_1128">
<rect width="127" height="40" fill="white"/>
</clipPath>
</defs>
</svg>
