<svg width="127" height="40" viewBox="0 0 127 40" fill="none" xmlns="http://www.w3.org/2000/svg">
<g clip-path="url(#clip0_3147_1117)">
<rect width="127" height="40" fill="white"/>
<g clip-path="url(#clip1_3147_1117)">
<path fill-rule="evenodd" clip-rule="evenodd" d="M116.029 33.2832C114.832 33.2832 113.866 33.0377 112.795 32.4656C112.746 32.4405 112.708 32.3971 112.691 32.3445C112.673 32.292 112.676 32.2345 112.7 32.1844L113.726 29.9608C113.739 29.9336 113.757 29.9092 113.779 29.8892C113.802 29.8691 113.828 29.8537 113.856 29.8438C113.915 29.8264 113.978 29.8323 114.033 29.8603C114.607 30.1714 115.169 30.328 115.703 30.328C116.362 30.328 116.846 30.1144 117.336 29.0379L113.007 18.7923H110.181V29.0388C110.18 29.0976 110.157 29.1538 110.115 29.1951C110.073 29.2364 110.017 29.2594 109.959 29.2592H106.932C106.903 29.2593 106.874 29.2537 106.848 29.2427C106.821 29.2317 106.797 29.2155 106.776 29.195C106.756 29.1746 106.739 29.1503 106.728 29.1235C106.717 29.0967 106.711 29.0679 106.711 29.0388V18.7923H105.257C105.229 18.7925 105.2 18.7871 105.173 18.7762C105.146 18.7653 105.122 18.7492 105.101 18.7288C105.081 18.7085 105.064 18.6842 105.053 18.6575C105.042 18.6307 105.036 18.602 105.036 18.5729V15.9936C105.036 15.935 105.06 15.8791 105.102 15.838C105.143 15.7969 105.199 15.774 105.257 15.7743H106.711V15.1413C106.711 12.2035 108.189 10.6495 110.985 10.6495C112.134 10.6495 112.902 10.8312 113.502 11.0071C113.546 11.0204 113.586 11.0479 113.614 11.0855C113.642 11.1231 113.657 11.1688 113.657 11.2158V13.7333C113.657 13.7684 113.649 13.8031 113.633 13.8345C113.618 13.8658 113.595 13.8931 113.567 13.914C113.538 13.9337 113.505 13.9465 113.47 13.9514C113.435 13.9562 113.4 13.953 113.366 13.942C112.799 13.7555 112.292 13.6308 111.661 13.6308C110.602 13.6308 110.131 14.173 110.131 15.3877V15.8013H115.303C115.394 15.8013 115.478 15.8564 115.508 15.9415L119.045 25.0467L122.273 15.9482C122.288 15.9048 122.317 15.8673 122.354 15.8409C122.392 15.8146 122.437 15.8007 122.482 15.8013H125.634C125.708 15.8013 125.774 15.8361 125.817 15.8951C125.837 15.9245 125.849 15.9583 125.853 15.9937C125.857 16.029 125.852 16.0648 125.84 16.098L120.588 29.4911C119.498 32.255 118.263 33.2832 116.029 33.2832V33.2832ZM101.905 14.1372C100.707 14.1372 99.7321 13.1786 99.7321 11.9947C99.7321 10.81 100.707 9.85228 101.905 9.85228C103.103 9.85228 104.076 10.81 104.076 11.9947C104.076 13.1786 103.103 14.1372 101.905 14.1372ZM95.1947 18.7923V24.9684C95.1947 25.9426 95.6287 26.3774 96.5993 26.3774C97.2291 26.3774 97.7927 26.2441 98.3755 25.9551C98.4094 25.9383 98.4469 25.9304 98.4847 25.9321C98.5225 25.9338 98.5592 25.945 98.5915 25.9648C98.6234 25.9841 98.6499 26.0115 98.6682 26.0442C98.6866 26.0768 98.6962 26.1138 98.6961 26.1513V28.5972C98.6958 28.6357 98.6851 28.6734 98.6654 28.7064C98.6456 28.7393 98.6175 28.7664 98.5838 28.7847C97.7351 29.2611 96.8345 29.4824 95.7487 29.4824C93.0787 29.4824 91.7249 28.1208 91.7249 25.4371V18.7923H90.2685C90.2397 18.7924 90.2112 18.7868 90.1846 18.7759C90.158 18.7649 90.1338 18.7488 90.1134 18.7284C90.093 18.7081 90.0768 18.6838 90.0656 18.6572C90.0545 18.6305 90.0487 18.6018 90.0486 18.5729V16.0072C90.0486 15.8854 90.1475 15.7878 90.2685 15.7878H91.7249V12.4248C91.7249 12.305 91.8238 12.2073 91.9467 12.2073H94.9729C95.0958 12.2073 95.1947 12.305 95.1947 12.4248V15.7878H98.5252C98.6472 15.7878 98.7461 15.8854 98.7461 16.0072V18.5729C98.7459 18.6019 98.7401 18.6306 98.7289 18.6574C98.7178 18.6841 98.7015 18.7084 98.6809 18.7288C98.6604 18.7492 98.6361 18.7653 98.6094 18.7762C98.5827 18.7871 98.5541 18.7925 98.5252 18.7923H95.1947V18.7923ZM82.5129 29.5559C78.4613 29.5559 75.2873 26.4895 75.2873 22.5737C75.2873 18.6145 78.4834 15.5143 82.5628 15.5143C86.6288 15.5143 89.8134 18.5932 89.8134 22.5235C89.8134 26.4673 86.6077 29.5559 82.5129 29.5559V29.5559ZM82.5129 18.57C80.3354 18.57 78.757 20.2322 78.757 22.5235C78.757 24.8042 80.393 26.5262 82.5628 26.5262C84.7537 26.5262 86.3436 24.8641 86.3436 22.5737C86.3436 20.2902 84.6971 18.57 82.5129 18.57ZM67.9675 29.5317C66.2634 29.5317 64.8645 28.9064 63.7115 27.6289V32.9894C63.7112 33.0184 63.7053 33.047 63.694 33.0737C63.6827 33.1003 63.6662 33.1244 63.6456 33.1447C63.625 33.1649 63.6006 33.1808 63.5738 33.1915C63.5471 33.2021 63.5185 33.2074 63.4897 33.2069H60.4635C60.4347 33.2074 60.4061 33.2021 60.3794 33.1915C60.3526 33.1808 60.3282 33.1649 60.3076 33.1447C60.287 33.1244 60.2705 33.1003 60.2592 33.0737C60.2479 33.047 60.242 33.0184 60.2417 32.9894V16.0072C60.2417 15.8854 60.3406 15.7878 60.4635 15.7878H63.4897C63.6126 15.7878 63.7115 15.8854 63.7115 16.0072V17.5341C64.8645 16.1773 66.2634 15.5143 67.9675 15.5143C71.1358 15.5143 74.3435 17.9206 74.3435 22.5235C74.3435 27.1244 71.1358 29.5317 67.9675 29.5317V29.5317ZM67.2676 18.5459C65.1967 18.5459 63.6356 20.2544 63.6356 22.5235C63.6356 24.7916 65.1967 26.5011 67.2676 26.5011C69.3606 26.5011 70.8229 24.865 70.8229 22.5235C70.8229 20.2177 69.327 18.5459 67.2676 18.5459ZM53.2695 18.8048C57.3902 19.7925 59.0694 21.329 59.0694 24.1026C59.0694 27.3844 56.5262 29.5066 52.5936 29.5066C49.8496 29.5207 47.1967 28.516 45.1424 26.6847C45.1209 26.6665 45.1033 26.6442 45.0905 26.6191C45.0777 26.594 45.07 26.5665 45.0678 26.5384C45.0657 26.5102 45.0691 26.4819 45.078 26.4551C45.0868 26.4283 45.1009 26.4035 45.1194 26.3823L46.9704 24.2089C46.9894 24.1866 47.0126 24.1683 47.0386 24.155C47.0646 24.1417 47.093 24.1338 47.1221 24.1315C47.181 24.1274 47.2392 24.1457 47.2853 24.1828C49.0864 25.7222 50.6956 26.3774 52.6685 26.3774C54.4457 26.3774 55.5488 25.6207 55.5488 24.3992C55.5488 23.2976 55.0035 22.6829 51.767 21.9466C47.9679 21.0391 45.7684 19.865 45.7684 16.5474C45.7684 13.454 48.3184 11.2932 51.9677 11.2932C54.4495 11.2932 56.5751 12.0189 58.4598 13.5129C58.552 13.5854 58.5702 13.7159 58.503 13.8096L56.8526 16.1067C56.8173 16.155 56.7645 16.1873 56.7057 16.1966C56.6468 16.2055 56.5867 16.1905 56.5387 16.155C54.9545 14.9896 53.4424 14.4233 51.9177 14.4233C50.3451 14.4233 49.2881 15.1683 49.2881 16.2778C49.2881 17.45 49.8891 18.0095 53.2695 18.8048V18.8048ZM39.1121 20.6052C39.0977 20.8188 39.0842 21.0314 39.0631 21.2421C39.0506 21.3677 39.0324 21.4914 39.018 21.6151C38.995 21.8055 38.9729 21.9949 38.945 22.1824C38.9249 22.3138 38.9009 22.4442 38.8778 22.5747C38.8471 22.7535 38.8173 22.9323 38.7818 23.1091C38.7549 23.2425 38.7242 23.3739 38.6944 23.5063C38.656 23.6783 38.6176 23.8494 38.5744 24.0194C38.5408 24.1528 38.5034 24.2842 38.4669 24.4166C38.4208 24.5828 38.3747 24.7491 38.3239 24.9143C38.2338 25.2089 38.1365 25.5011 38.032 25.7908C37.8807 26.2079 37.7158 26.6198 37.5375 27.0259C37.4132 27.3043 37.2839 27.5804 37.1497 27.8541C37.0729 28.0077 36.9932 28.1585 36.9135 28.3092C36.8501 28.4271 36.7877 28.5441 36.7224 28.661C36.6375 28.8112 36.5508 28.9604 36.4622 29.1084C36.395 29.2205 36.3288 29.3326 36.2597 29.4438C36.1665 29.5935 36.0696 29.7404 35.9716 29.8873C35.9015 29.9927 35.8334 30.099 35.7614 30.2024C35.6577 30.3531 35.5492 30.5 35.4407 30.6479C35.3697 30.7445 35.3015 30.8411 35.2285 30.9368C35.1095 31.0934 34.9856 31.2451 34.8608 31.3978C34.7946 31.4799 34.7302 31.563 34.663 31.6442C34.5104 31.8259 34.352 32.0027 34.1935 32.1796C34.1494 32.2269 34.1091 32.2772 34.0649 32.3245C33.8585 32.5478 33.6482 32.7662 33.4312 32.9798C33.3928 33.0184 33.3506 33.0551 33.3112 33.0938C33.1346 33.2664 32.9547 33.4355 32.7717 33.6011C32.6939 33.6717 32.6132 33.7374 32.5355 33.806C32.3857 33.9365 32.2369 34.0669 32.0833 34.1926C31.9901 34.2689 31.8951 34.3414 31.801 34.4158C31.657 34.5289 31.5139 34.6419 31.367 34.7521C31.2643 34.8284 31.1597 34.9009 31.056 34.9753L30.7305 35.2044C30.7612 35.1821 30.7948 35.1638 30.8265 35.1425C30.79 35.1676 30.7526 35.1889 30.7161 35.214C30.6854 35.2353 30.6556 35.2575 30.6249 35.2778C30.5145 35.3522 30.4031 35.4237 30.2918 35.4952C30.1022 35.6183 29.9105 35.7378 29.7167 35.8538L29.6495 35.8924C29.6639 35.8847 29.6792 35.877 29.6927 35.8683L29.492 35.9852C29.3499 36.0683 29.2078 36.1495 29.0638 36.2287L28.8747 36.3292C28.7643 36.3882 28.6519 36.4462 28.5396 36.5032L28.481 36.5322C28.3946 36.5757 28.3101 36.6201 28.2228 36.6626C28.1056 36.7187 27.9885 36.7747 27.8694 36.8298L27.7734 36.8723C27.6678 36.9207 27.5622 36.968 27.4557 37.0144L27.4096 37.0347C27.3164 37.0753 27.2214 37.1139 27.1273 37.1536C26.9633 37.2219 26.7982 37.2873 26.6319 37.3497C26.5196 37.3923 26.4082 37.4338 26.2959 37.4744L26.1509 37.5276C26.027 37.571 25.9013 37.6126 25.7755 37.6532C25.6728 37.687 25.57 37.7208 25.4663 37.7527L25.4251 37.7653C25.3137 37.8001 25.2023 37.8329 25.09 37.8648L24.7693 37.9557C24.632 37.9924 24.4957 38.0301 24.3574 38.0649L24.2874 38.0803L24.1145 38.1228C24.1453 38.1161 24.1741 38.1064 24.2048 38.0996L24.0051 38.1451C24.0406 38.1364 24.0781 38.1315 24.1145 38.1228C24.0301 38.1431 23.9446 38.1586 23.8601 38.1779L23.8476 38.1808C23.7103 38.2108 23.574 38.2427 23.4358 38.2697C23.2927 38.2978 23.1487 38.3219 23.0047 38.3461C22.9202 38.3606 22.8367 38.3789 22.7522 38.3925C22.7915 38.3857 22.8299 38.376 22.8693 38.3693L22.661 38.4041C22.6917 38.3992 22.7224 38.3973 22.7522 38.3925L22.611 38.4128L22.4978 38.4321C22.3067 38.4601 22.1137 38.4814 21.9207 38.5046C21.7959 38.5191 21.6711 38.5374 21.5444 38.549L21.5156 38.5529H21.4973C21.4455 38.5577 21.3917 38.5596 21.3399 38.5645C21.2208 38.5751 21.1018 38.5819 20.9827 38.5906C20.5785 38.6196 20.1715 38.6379 19.7605 38.6418C19.7241 38.6418 19.6895 38.6466 19.654 38.6466H19.5071C19.4725 38.6466 19.4399 38.6428 19.4053 38.6418C18.985 38.6372 18.5649 38.6195 18.1457 38.5886C18.0314 38.5799 17.9162 38.5732 17.802 38.5635C17.7559 38.5587 17.7088 38.5577 17.6618 38.5529H17.6445C17.3025 38.5178 16.9616 38.4734 16.622 38.4195C16.671 38.4273 16.7209 38.4311 16.7699 38.4379C16.6479 38.4195 16.5231 38.4089 16.4022 38.3896L16.2293 38.3586C16.2754 38.3664 16.3205 38.3789 16.3666 38.3867C16.2841 38.3731 16.2034 38.3538 16.1208 38.3393L16.092 38.3345C16.0412 38.3258 15.9922 38.3132 15.9423 38.3045C15.6172 38.2462 15.2935 38.1798 14.9716 38.1054L15.0638 38.1238L14.9121 38.089L14.9716 38.1054C14.8324 38.0726 14.697 38.031 14.5588 37.9943L14.5809 38.0001C14.5665 37.9972 14.553 37.9924 14.5386 37.9885L14.5588 37.9943C14.2794 37.9218 14 37.8494 13.7254 37.7653L13.6909 37.7556C13.6534 37.744 13.6169 37.7305 13.5795 37.7179L13.5622 37.7121C13.4076 37.6628 13.2559 37.6058 13.1023 37.5527L13.302 37.6213C13.1964 37.5855 13.0918 37.5478 12.9871 37.5102L13.1023 37.5527C12.8671 37.4715 12.6319 37.3903 12.4015 37.3004L12.2853 37.255C12.269 37.2483 12.2536 37.2405 12.2373 37.2347C12.0793 37.1707 11.9222 37.1047 11.7659 37.0366C11.8686 37.0811 11.9723 37.1226 12.075 37.1652C11.9224 37.1023 11.7707 37.0357 11.62 36.9699C11.6689 36.9912 11.7169 37.0154 11.7659 37.0366C11.6046 36.967 11.4414 36.8994 11.282 36.825L11.2474 36.8105C11.2263 36.8008 11.2042 36.7921 11.1831 36.7815C11.1073 36.7467 11.0353 36.7042 10.9604 36.6684C10.8068 36.5931 10.6531 36.5196 10.5014 36.4413C10.6311 36.508 10.7636 36.5699 10.8951 36.6346C10.7067 36.5422 10.5198 36.4468 10.3344 36.3486C10.391 36.3785 10.4448 36.4114 10.5014 36.4413C10.3738 36.3747 10.247 36.3089 10.1213 36.2403L10.0752 36.2162C10.0281 36.191 9.98204 36.163 9.93596 36.1369C9.87547 36.1041 9.81882 36.0664 9.7593 36.0316L9.70842 36.0026L9.73434 36.0171C9.526 35.8973 9.32054 35.7755 9.11796 35.6489C9.17845 35.6866 9.23605 35.7291 9.2975 35.7668C9.19861 35.7069 9.1026 35.6431 9.00563 35.5822L8.99699 35.5764L8.84914 35.4827C8.77425 35.4344 8.7032 35.3812 8.62928 35.3319C8.47086 35.2266 8.30861 35.1271 8.15307 35.0169C8.26924 35.099 8.39309 35.1715 8.51119 35.2508C8.30381 35.1116 8.09451 34.9753 7.89289 34.8275L7.93513 34.8594C7.92073 34.8497 7.90729 34.8381 7.89289 34.8275C7.70471 34.6883 7.52133 34.5434 7.33796 34.3984L7.32932 34.3916L7.3274 34.3907C7.24675 34.3259 7.16418 34.2641 7.08353 34.1984L7.08257 34.1974L7.05089 34.1703C6.82815 33.9867 6.60733 33.7992 6.39323 33.606L6.37595 33.5915L6.36251 33.5789C6.28378 33.5084 6.21081 33.434 6.13401 33.3615C5.98231 33.2204 5.83062 33.0793 5.68372 32.9334L5.66548 32.916L5.62996 32.8821L5.66548 32.916C5.605 32.8561 5.54739 32.7932 5.48787 32.7324C5.53587 32.7816 5.58099 32.8338 5.62996 32.8821C5.58099 32.8329 5.53491 32.7807 5.48595 32.7304L5.40722 32.6473C5.27377 32.5082 5.13935 32.3709 5.00974 32.2279L5.00782 32.225C4.93389 32.1438 4.86189 32.0607 4.78988 31.9786L4.7342 31.9138C4.53869 31.6892 4.34791 31.4604 4.16198 31.2277C4.14278 31.2045 4.12454 31.1794 4.1063 31.1552C3.92569 30.9273 3.75027 30.6954 3.58017 30.4594C3.55905 30.4295 3.53985 30.3985 3.51872 30.3696C3.41083 30.2166 3.30489 30.0623 3.20094 29.9067C3.14813 29.8274 3.09341 29.7482 3.04156 29.667C3.01756 29.6303 2.99644 29.5926 2.97339 29.5559C2.87565 29.4021 2.78027 29.2468 2.68729 29.0901C2.67577 29.0688 2.66233 29.0485 2.64984 29.0282C2.61432 28.9693 2.57784 28.9113 2.54327 28.8514C2.51735 28.8069 2.49431 28.7605 2.46935 28.7151C2.37941 28.5546 2.29171 28.3929 2.20628 28.23C2.165 28.1536 2.1218 28.0792 2.08243 28.0019C2.05747 27.9536 2.03539 27.9043 2.01139 27.856C1.92629 27.6849 1.84435 27.5122 1.7656 27.338C1.73392 27.2713 1.70032 27.2046 1.66959 27.137L1.61967 27.0201C1.53038 26.8191 1.44685 26.6152 1.36525 26.4103L1.29804 26.247L1.2702 26.1706C1.17548 25.9236 1.08617 25.6746 1.00233 25.4236L0.969689 25.3308L0.960088 25.3009C0.722707 24.583 0.528419 23.8514 0.378275 23.1101L0.370594 23.0714C0.355233 22.9951 0.344672 22.9178 0.33027 22.8424C0.287981 22.6234 0.249571 22.4037 0.21506 22.1833L0.200659 22.0983C0.185297 21.99 0.175696 21.8799 0.162255 21.7707C0.135469 21.5727 0.112103 21.3742 0.0921685 21.1754C0.0902483 21.1561 0.086408 21.1367 0.0854479 21.1164C0.0825676 21.0903 0.0835277 21.0633 0.0816075 21.0362C0.0287125 20.4666 0.00148206 19.8949 0 19.3228C0 19.0745 0.00960088 18.8271 0.0192018 18.5806C0.0153614 18.6927 0.00576053 18.8039 0.00384035 18.9169C0.00576053 18.8039 0.0153614 18.6927 0.0192018 18.5806C0.0249623 18.4405 0.0307228 18.3004 0.0384035 18.1603C0.043204 18.0878 0.043204 18.0143 0.0489645 17.9419C0.043204 18.0143 0.043204 18.0878 0.0384035 18.1603C0.0499246 17.9738 0.065286 17.7892 0.0816075 17.6046C0.0710465 17.7167 0.0566452 17.8288 0.0489645 17.9419C0.0566452 17.8278 0.0720066 17.7157 0.0816075 17.6017C0.0940887 17.4625 0.10657 17.3243 0.121931 17.1862C0.143053 17.0025 0.167055 16.8189 0.192978 16.6363C0.21218 16.4991 0.231381 16.3628 0.253463 16.2275V16.2265C0.283226 16.0458 0.316829 15.8661 0.351392 15.6873V15.6854C0.377315 15.551 0.403237 15.4167 0.43204 15.2833V15.2824C0.471126 15.1046 0.512734 14.9274 0.556851 14.7509C0.588534 14.6194 0.621177 14.487 0.656701 14.3566V14.3547C0.703745 14.1807 0.753669 14.0097 0.805514 13.8386L0.806474 13.8347C0.844878 13.7052 0.883281 13.5748 0.924565 13.4472L0.925525 13.4443C0.98025 13.2752 1.03882 13.108 1.09834 12.9408L1.10026 12.936C1.14539 12.8094 1.18955 12.6828 1.23755 12.5572L1.23851 12.5543C1.30092 12.389 1.36717 12.2267 1.43341 12.0643L1.43629 12.0576C1.48718 11.9339 1.53806 11.8092 1.59087 11.6865L1.59279 11.6836C1.6647 11.5216 1.73863 11.3605 1.81457 11.2004C1.87121 11.0796 1.9269 10.9578 1.98642 10.839L1.98834 10.8351C2.06515 10.6795 2.1458 10.5268 2.22741 10.3741L2.23221 10.3645C2.29461 10.2475 2.35606 10.1287 2.42134 10.0127L2.42326 10.0088C2.50679 9.85904 2.59512 9.71118 2.68249 9.56333L2.68921 9.5527C2.75737 9.43866 2.82458 9.32366 2.89467 9.2106L2.89755 9.20673C2.9878 9.06177 3.08188 8.91972 3.17597 8.77766L3.18365 8.76509C3.25758 8.65493 3.32959 8.54379 3.40543 8.43459L3.40831 8.42976C3.50432 8.2906 3.60513 8.15434 3.70498 8.01711L3.71554 8.00358C3.79427 7.89632 3.87108 7.78905 3.95172 7.68371L3.95556 7.67888C4.05733 7.54552 4.1639 7.41506 4.27047 7.28363L4.28199 7.26913C4.36552 7.16573 4.44809 7.06233 4.53354 6.96086C4.53452 6.95903 4.53582 6.95739 4.53738 6.95602C4.64491 6.82846 4.75724 6.70283 4.86861 6.57817L4.88301 6.56271C4.97134 6.46317 5.05775 6.36363 5.14799 6.26603L5.15279 6.26216C5.26609 6.13943 5.38418 6.02057 5.50035 5.9017L5.51667 5.88527C5.6098 5.79057 5.70101 5.6949 5.79605 5.60212C5.79761 5.60076 5.79891 5.59912 5.79989 5.59729L5.83446 5.5625L5.80181 5.59632C5.90454 5.49582 6.01111 5.39918 6.11576 5.30061C6.02936 5.38179 5.94007 5.46006 5.85462 5.54221C5.95543 5.4446 6.06104 5.35086 6.16377 5.25519L6.18201 5.23876C6.27994 5.14792 6.37595 5.05612 6.47484 4.96818L6.47964 4.96431L6.53052 4.91696L6.47964 4.96431C6.58621 4.86864 6.69758 4.7778 6.80703 4.68406C6.71486 4.76234 6.62077 4.83675 6.53052 4.91696C6.63805 4.82225 6.74942 4.73238 6.85791 4.64057C6.86476 4.63454 6.8718 4.62874 6.87903 4.62318C6.97984 4.53813 7.07969 4.45116 7.18242 4.36805L7.18722 4.36419L7.23715 4.32263L7.18818 4.36322C7.29955 4.27335 7.4138 4.18734 7.52709 4.10036C7.43108 4.17477 7.3322 4.24629 7.23715 4.32263C7.34948 4.23179 7.46661 4.14578 7.58182 4.05784L7.6039 4.04045C7.70951 3.96024 7.81224 3.87906 7.91881 3.80078L7.92265 3.79788L7.97162 3.76116L7.92553 3.79595C8.0417 3.71091 8.15979 3.6307 8.27692 3.54856C8.17611 3.62007 8.07146 3.68772 7.97162 3.76116C8.08971 3.67419 8.2126 3.59301 8.33357 3.5099L8.35853 3.49251C8.46606 3.41713 8.57263 3.34079 8.68208 3.26831L8.68592 3.26541L8.73297 3.23352L8.69072 3.26251C8.81073 3.18327 8.93458 3.10885 9.05555 3.03154C8.94898 3.09919 8.83858 3.16394 8.73297 3.23352C8.85778 3.15137 8.98547 3.07503 9.1122 2.99579L9.14004 2.97936C9.25045 2.90978 9.3599 2.83827 9.47223 2.77159L9.47607 2.76965C9.49076 2.75975 9.50581 2.7504 9.5212 2.74163L9.48279 2.76579C9.60761 2.69138 9.7353 2.6218 9.86203 2.55028C9.74874 2.61407 9.63257 2.67495 9.5212 2.74163C9.65081 2.66432 9.78522 2.59281 9.91675 2.51936L9.94748 2.50197C10.0608 2.43915 10.1721 2.37344 10.2864 2.31159C10.2878 2.31132 10.2892 2.31065 10.2902 2.30966L10.3334 2.28646L10.2989 2.30579C10.4294 2.23621 10.5639 2.17146 10.6954 2.10478C10.5754 2.16566 10.4525 2.22268 10.3334 2.28646C10.4698 2.21398 10.609 2.14827 10.7463 2.07869C10.7577 2.0738 10.769 2.06831 10.7799 2.06226C10.8951 2.00524 11.0084 1.94533 11.1255 1.89025L11.1284 1.88831L11.1697 1.86802L11.1399 1.88348C11.2772 1.81873 11.4174 1.75882 11.5566 1.69697C11.4279 1.75495 11.2974 1.8081 11.1697 1.86802C11.3118 1.80134 11.4567 1.74142 11.6007 1.67764L11.6372 1.66121C11.7534 1.60999 11.8686 1.55588 11.9867 1.50756L11.9896 1.50562C12.0026 1.50056 12.0154 1.49508 12.028 1.4892L12.003 1.50079C12.149 1.43991 12.2978 1.38579 12.4456 1.32878C12.3064 1.38193 12.1662 1.43315 12.028 1.4892C12.1758 1.42831 12.3275 1.3742 12.4773 1.31621L12.5186 1.30075C12.6357 1.25533 12.7509 1.20798 12.87 1.16449H12.8719C12.8838 1.1594 12.896 1.15489 12.9084 1.15096L12.8873 1.15869C13.0457 1.10168 13.2079 1.05142 13.3683 0.998274C13.2147 1.04949 13.0601 1.09684 12.9084 1.15096C13.063 1.09588 13.2204 1.04756 13.376 0.995375L13.424 0.979912C13.5411 0.941257 13.6553 0.899703 13.7725 0.863946H13.7744L13.808 0.853316L13.7917 0.859114C13.9587 0.807896 14.1287 0.763443 14.2967 0.717056L14.2708 0.724787L14.338 0.70546L14.3965 0.689031C14.4964 0.661972 14.5943 0.632014 14.6951 0.605922H14.6961L14.7258 0.598191L14.7162 0.60109C14.8891 0.557603 15.0647 0.52088 15.2395 0.482225L15.178 0.495754C15.2664 0.47546 15.3537 0.4542 15.443 0.435839L15.5275 0.416511C15.564 0.40878 15.5995 0.399116 15.635 0.392351L15.636 0.391385L15.6619 0.38752L15.6581 0.388486C15.8386 0.351763 16.022 0.322772 16.2053 0.291848L16.1074 0.308276C16.2706 0.280251 16.4319 0.247394 16.5951 0.223234L16.5961 0.222268L16.6124 0.220335H16.6163C16.7622 0.198109 16.911 0.183613 17.0579 0.164285C16.959 0.176848 16.8582 0.188445 16.7593 0.201974C16.9052 0.18168 17.0531 0.164285 17.2 0.14689L17.0579 0.164285C17.2278 0.143025 17.3968 0.117899 17.5687 0.100504H17.5696L17.5898 0.0985711H17.5907C17.7357 0.0840753 17.8826 0.0763443 18.0285 0.065714L17.8855 0.0763443C18.0065 0.0666804 18.1265 0.0570166 18.2474 0.0492855L18.0285 0.065714C18.2042 0.0521847 18.379 0.0347898 18.5556 0.0260923H18.5566L18.5787 0.025126C18.7246 0.0173949 18.8725 0.0173949 19.0184 0.0135294L18.9368 0.0154621C19.1509 0.00869745 19.364 0 19.58 0C30.3945 0 39.1601 8.65009 39.1601 19.3228C39.1601 19.6466 39.1505 19.9684 39.1351 20.2882C39.1294 20.3945 39.1188 20.4999 39.1121 20.6052ZM8.22028 25.5038C8.36909 26.1513 9.02483 26.5572 9.68153 26.4083C16.4962 24.8718 22.2837 25.498 26.8806 28.2715C27.4566 28.6175 28.2084 28.4406 28.5598 27.8695C28.6431 27.7347 28.6988 27.5844 28.7235 27.4276C28.7483 27.2707 28.7416 27.1105 28.7038 26.9563C28.6661 26.8021 28.598 26.6571 28.5037 26.5298C28.4094 26.4025 28.2907 26.2955 28.1546 26.2151C22.9932 23.1014 16.5961 22.3776 9.13716 24.061C8.98214 24.0938 8.83517 24.1574 8.70483 24.248C8.57449 24.3386 8.4634 24.4545 8.37804 24.5888C8.29268 24.7231 8.23476 24.8732 8.20768 25.0303C8.18059 25.1874 8.18487 25.3484 8.22028 25.5038ZM7.43877 19.8495C7.68455 20.6448 8.53711 21.0932 9.3455 20.8526C15.5707 18.9885 23.5942 19.9123 28.8555 23.1052C29.5726 23.5392 30.5135 23.3179 30.9552 22.6105C31.0598 22.4419 31.1299 22.254 31.1613 22.0577C31.1928 21.8615 31.1849 21.6609 31.1382 21.4678C31.0915 21.2747 31.0069 21.0929 30.8894 20.9331C30.7719 20.7734 30.6239 20.6389 30.454 20.5376C24.4093 16.874 15.5698 15.8409 8.45742 17.9709C8.26735 18.0259 8.09002 18.1183 7.93569 18.2428C7.78136 18.3673 7.65311 18.5213 7.55836 18.6961C7.46362 18.8708 7.40426 19.0627 7.38373 19.2607C7.3632 19.4587 7.38191 19.6588 7.43877 19.8495V19.8495ZM33.0309 14.0213C25.7649 9.76433 14.2679 9.36425 7.3514 11.4371C7.12328 11.5029 6.91043 11.6136 6.72523 11.7629C6.54003 11.9122 6.38617 12.0971 6.27262 12.3068C6.15906 12.5166 6.08808 12.7469 6.06378 12.9845C6.03949 13.2221 6.06238 13.4622 6.13112 13.6907C6.42395 14.6465 7.44645 15.1848 8.41518 14.8949C14.4397 13.0906 24.85 13.4318 31.1626 17.1301C31.58 17.3754 32.0762 17.4464 32.545 17.3282C33.0139 17.2099 33.4181 16.9116 33.6713 16.4971C33.7938 16.2931 33.8746 16.0664 33.9087 15.8304C33.9428 15.5944 33.9296 15.354 33.8699 15.1232C33.8103 14.8925 33.7053 14.6761 33.5612 14.4868C33.4171 14.2975 33.2367 14.1392 33.0309 14.0213V14.0213ZM19.5282 0H19.58C19.3919 0 19.2056 0.00869745 19.0184 0.0135294C19.1883 0.00869745 19.3573 0 19.5282 0V0ZM103.402 15.7878C103.525 15.7878 103.624 15.8854 103.624 16.0072V29.0388C103.624 29.0976 103.6 29.1538 103.559 29.1951C103.517 29.2364 103.461 29.2594 103.402 29.2592H100.375C100.317 29.2594 100.261 29.2364 100.219 29.1951C100.178 29.1538 100.154 29.0976 100.154 29.0388V16.0072C100.154 15.8854 100.253 15.7878 100.375 15.7878H103.402ZM124.805 25.1231C125.885 25.1231 126.725 25.9909 126.725 27.0442C126.724 27.5582 126.52 28.0506 126.158 28.4132C125.796 28.7759 125.306 28.979 124.795 28.978C124.543 28.9797 124.294 28.9313 124.06 28.8354C123.827 28.7395 123.615 28.5981 123.437 28.4193C123.258 28.2405 123.116 28.0279 123.02 27.7937C122.923 27.5595 122.874 27.3084 122.874 27.0549C122.874 26.0005 123.726 25.1231 124.805 25.1231V25.1231ZM124.795 28.7847C125.023 28.7869 125.249 28.7434 125.459 28.6567C125.67 28.57 125.862 28.4419 126.023 28.2798C126.184 28.1178 126.311 27.925 126.397 27.7129C126.483 27.5007 126.526 27.2734 126.524 27.0442C126.527 26.8163 126.484 26.5901 126.399 26.379C126.313 26.1679 126.187 25.9761 126.026 25.8149C125.866 25.6538 125.676 25.5265 125.466 25.4405C125.256 25.3546 125.031 25.3117 124.805 25.3144C123.822 25.3144 123.077 26.0962 123.077 27.0549C123.077 28.0135 123.816 28.7847 124.795 28.7847V28.7847ZM125.699 26.6296C125.699 26.9592 125.508 27.1621 125.23 27.2423L125.774 28.0029H125.316L124.827 27.3042H124.406V28.0029H124.022V25.986H124.922C125.39 25.986 125.699 26.2257 125.699 26.6296V26.6296ZM124.406 26.331V26.9698H124.907C125.156 26.9698 125.305 26.8481 125.305 26.6499C125.305 26.4431 125.156 26.331 124.907 26.331H124.406V26.331Z" fill="#00D150"/>
</g>
</g>
<defs>
<clipPath id="clip0_3147_1117">
<rect width="127" height="40" fill="white"/>
</clipPath>
<clipPath id="clip1_3147_1117">
<rect width="141" height="38.9605" fill="white"/>
</clipPath>
</defs>
</svg>
